<svg width="39" height="39" xmlns="http://www.w3.org/2000/svg" xmlns:xlink="http://www.w3.org/1999/xlink"><defs><path d="M0 19.5a19.5 19.5 0 1 1 39 0 19.5 19.5 0 0 1-39 0z" id="a"/></defs><g fill="none" fill-rule="evenodd"><mask id="b" fill="#fff"><use xlink:href="#a"/></mask><path stroke="#008FFF" stroke-width="2.44" d="M1.22 19.5a18.28 18.28 0 1 0 36.56 0 18.28 18.28 0 0 0-36.56 0z"/><path d="M19.51 11.38c-2.2 0-2.48 0-3.35.04-.87.04-1.46.18-1.98.38-.53.21-.99.49-1.44.94a4 4 0 0 0-.94 1.44c-.2.52-.34 1.12-.38 1.98-.03.87-.04 1.15-.04 3.36a58 58 0 0 0 .04 3.36 6 6 0 0 0 .38 1.98 4 4 0 0 0 .94 1.44c.45.45.9.73 1.44.94.52.2 1.11.34 1.98.38.87.04 1.14.05 3.35.05s2.5-.01 3.36-.05a5.98 5.98 0 0 0 1.98-.38c.53-.2.98-.49 1.44-.94a4 4 0 0 0 .94-1.44c.2-.52.33-1.11.37-1.98.04-.87.05-1.15.05-3.36s0-2.49-.05-3.36a6.04 6.04 0 0 0-.37-1.98 4 4 0 0 0-.94-1.44c-.46-.45-.9-.73-1.44-.94a5.99 5.99 0 0 0-1.98-.38 57.7 57.7 0 0 0-3.36-.04zm-.73 1.46h.73c2.18 0 2.44.01 3.3.05.79.04 1.22.17 1.5.28.38.15.66.32.94.61.29.28.46.56.6.94.12.28.25.71.29 1.5.04.87.05 1.13.05 3.3s-.01 2.43-.05 3.29a4.5 4.5 0 0 1-.28 1.51c-.15.38-.32.65-.61.94-.28.28-.56.46-.94.6-.28.12-.71.25-1.5.29-.86.04-1.12.04-3.3.04-2.17 0-2.43 0-3.28-.04a4.51 4.51 0 0 1-1.52-.28 2.52 2.52 0 0 1-.93-.61 2.52 2.52 0 0 1-.61-.94 4.5 4.5 0 0 1-.28-1.51 57 57 0 0 1-.05-3.3c0-2.17.01-2.42.05-3.28.04-.8.17-1.23.28-1.52.15-.38.32-.65.6-.93.3-.29.56-.46.94-.61a4.5 4.5 0 0 1 1.52-.28c.75-.04 1.04-.05 2.55-.05zm5.08 1.36a.98.98 0 1 0 0 1.95.98.98 0 0 0 0-1.95zm-4.35 1.14a4.18 4.18 0 1 0 0 8.36 4.18 4.18 0 0 0 0-8.36zm0 1.47a2.71 2.71 0 1 1 0 5.42 2.71 2.71 0 0 1 0-5.42z" fill="#008FFF" mask="url(#b)"/></g></svg>