<svg width="39" height="39" xmlns="http://www.w3.org/2000/svg"><g fill="none" fill-rule="evenodd"><path d="M1.22 19.5a18.28 18.28 0 1 0 36.56 0 18.28 18.28 0 0 0-36.56 0z" stroke="#008FFF" stroke-width="2.44"/><path d="M27.78 16.34s.17 1.35.17 2.7v1.26c0 1.34-.17 2.69-.17 2.69s-.16 1.15-.65 1.65c-.63.67-1.34.67-1.67.7-2.31.18-5.8.18-5.8.18s-4.3-.04-5.63-.17c-.37-.06-1.2-.04-1.83-.7-.5-.51-.66-1.66-.66-1.66s-.16-1.35-.16-2.7v-1.26c0-1.34.16-2.7.16-2.7s.16-1.14.66-1.64c.63-.67 1.34-.67 1.66-.7 2.32-.18 5.8-.18 5.8-.18s3.49 0 5.8.17c.33.04 1.04.04 1.67.7.5.51.65 1.66.65 1.66zm-9.83 5.49l4.48-2.33-4.48-2.35v4.68z" fill="#008FFF"/></g></svg>