<?xml version="1.0" encoding="UTF-8"?>
<svg width="39px" height="39px" viewBox="0 0 39 39" version="1.1" xmlns="http://www.w3.org/2000/svg" xmlns:xlink="http://www.w3.org/1999/xlink">
    <defs>
        <path d="M0,19.5 C0,8.73044685 8.73044685,0 19.5,0 C30.2695532,0 39,8.73044685 39,19.5 C39,30.2695532 30.2695532,39 19.5,39 C8.73044685,39 0,30.2695532 0,19.5 Z" id="path-1"></path>
    </defs>
    <g id="export" stroke="none" stroke-width="1" fill="none" fill-rule="evenodd">
        <g id="icon-instagram">
            <mask id="mask-2" fill="white">
                <use xlink:href="#path-1"></use>
            </mask>
            <path stroke="#008FFF" stroke-width="2.4375" d="M1.21875,19.5 C1.21875,29.5964561 9.40354388,37.78125 19.5,37.78125 C29.5964561,37.78125 37.78125,29.5964561 37.78125,19.5 C37.78125,9.40354388 29.5964561,1.21875 19.5,1.21875 C9.40354388,1.21875 1.21875,9.40354388 1.21875,19.5 Z"></path>
            <path d="M19.5148935,11.375 C17.3044183,11.375 17.0270067,11.3846732 16.1588237,11.4242146 C15.2923365,11.4639257 14.7008868,11.6012175 14.1833684,11.8026579 C13.6480454,12.0107169 13.193945,12.2890339 12.7415403,12.741978 C12.2887965,13.1947523 12.0107066,13.6492237 11.8021392,14.1848143 C11.6003545,14.7029252 11.4630053,15.2950278 11.4240049,16.1618836 C11.385174,17.0307758 11.375,17.3085838 11.375,19.5208649 C11.375,21.733146 11.3848349,22.0099357 11.4241744,22.878828 C11.4640227,23.7460232 11.6012024,24.3379561 11.8023088,24.8558973 C12.0103675,25.3916576 12.2884573,25.846129 12.7410316,26.2989033 C13.1932668,26.7520171 13.6473671,27.0310129 14.182351,27.2390719 C14.7002086,27.4405124 15.2918278,27.5778041 16.1581455,27.6175152 C17.0263284,27.6570566 17.3035705,27.6667298 19.5138761,27.6667298 C21.7245209,27.6667298 22.0010846,27.6570566 22.8692676,27.6175152 C23.7357548,27.5778041 24.3278828,27.4405124 24.8457403,27.2390719 C25.3808937,27.0310129 25.8343158,26.7520171 26.286551,26.2989033 C26.7392948,25.846129 27.0173847,25.3916576 27.2259521,24.856067 C27.4260411,24.3379561 27.5633904,23.7458535 27.6040864,22.8789977 C27.6430869,22.0101055 27.6532609,21.733146 27.6532609,19.5208649 C27.6532609,17.3085838 27.6430869,17.0309455 27.6040864,16.1620533 C27.5633904,15.2948581 27.4260411,14.7029252 27.2259521,14.184984 C27.0173847,13.6492237 26.7392948,13.1947523 26.286551,12.741978 C25.8338071,12.2888642 25.3810633,12.0105472 24.8452316,11.8026579 C24.3263566,11.6012175 23.7345679,11.4639257 22.8680806,11.4242146 C21.9998976,11.3846732 21.7235034,11.375 19.51235,11.375 L19.5148935,11.375 Z M18.7847381,12.8429527 C19.0014447,12.8426133 19.2432472,12.8429527 19.5148935,12.8429527 C21.6880639,12.8429527 21.9456362,12.8507592 22.8038147,12.8897915 C23.5973882,12.9261084 24.0280883,13.0588182 24.3149957,13.1703147 C24.6948257,13.3179585 24.9656242,13.4944522 25.2503271,13.7795575 C25.5351997,14.0646628 25.7115493,14.3361916 25.8594117,14.716332 C25.9708173,15.0031343 26.1035882,15.4341863 26.139706,16.2284081 C26.1787064,17.0871181 26.1871847,17.3450704 26.1871847,19.5189981 C26.1871847,21.6929258 26.1787064,21.9508782 26.139706,22.8095882 C26.1034186,23.60381 25.9708173,24.034862 25.8594117,24.3216643 C25.7118885,24.7018047 25.5351997,24.972485 25.2503271,25.2574206 C24.9654546,25.5425258 24.6949953,25.7190196 24.3149957,25.8666634 C24.0284275,25.978669 23.5973882,26.1110393 22.8038147,26.1473563 C21.9458058,26.1863886 21.6880639,26.1948738 19.5148935,26.1948738 C17.3415535,26.1948738 17.0839812,26.1863886 16.2259723,26.1473563 C15.4323988,26.1106999 15.0016986,25.9779902 14.7146217,25.8664937 C14.3347917,25.7188499 14.0634845,25.5423561 13.778612,25.2572509 C13.4937395,24.9721456 13.3173898,24.7012956 13.1695274,24.3209855 C13.0581219,24.0341832 12.9253509,23.6031312 12.8892332,22.8089093 C12.8502328,21.9501994 12.8424327,21.692247 12.8424327,19.5169617 C12.8424327,17.3416763 12.8502328,17.0850816 12.8892332,16.2263717 C12.9255205,15.4321498 13.0581219,15.0010978 13.1695274,14.7139561 C13.3170507,14.3338157 13.4937395,14.0622869 13.778612,13.7771816 C14.0634845,13.4920763 14.3347917,13.3155826 14.7146217,13.1675994 C15.0015291,13.0555938 15.4323988,12.9232234 16.2259723,12.8867368 C16.9768149,12.8527957 17.2677918,12.8426133 18.7847381,12.8409163 L18.7847381,12.8429527 Z M23.8595387,14.1955057 C23.3203157,14.1955057 22.8828329,14.6328368 22.8828329,15.1726701 C22.8828329,15.7123337 23.3203157,16.1501739 23.8595387,16.1501739 C24.3987618,16.1501739 24.8362446,15.7123337 24.8362446,15.1726701 C24.8362446,14.6330066 24.3987618,14.1951663 23.8595387,14.1951663 L23.8595387,14.1955057 Z M19.5148935,15.3376239 C17.2065781,15.3376239 15.3350673,17.2106637 15.3350673,19.5208649 C15.3350673,21.8310661 17.2065781,23.7032574 19.5148935,23.7032574 C21.8232088,23.7032574 23.6940414,21.8310661 23.6940414,19.5208649 C23.6940414,17.2106637 21.8230393,15.3376239 19.5147239,15.3376239 L19.5148935,15.3376239 Z M19.5148935,16.8055766 C21.0131874,16.8055766 22.2279652,18.0211772 22.2279652,19.5208649 C22.2279652,21.0203829 21.0131874,22.2361532 19.5148935,22.2361532 C18.0164301,22.2361532 16.8018217,21.0203829 16.8018217,19.5208649 C16.8018217,18.0211772 18.0164301,16.8055766 19.5148935,16.8055766 L19.5148935,16.8055766 Z" id="Shape" fill="#008FFF" mask="url(#mask-2)"></path>
        </g>
    </g>
</svg>