<?xml version="1.0" encoding="UTF-8"?>
<svg width="39px" height="39px" viewBox="0 0 39 39" version="1.1" xmlns="http://www.w3.org/2000/svg" xmlns:xlink="http://www.w3.org/1999/xlink">
    <g id="export" stroke="none" stroke-width="1" fill="none" fill-rule="evenodd">
        <g id="icon-youtube">
            <path d="M1.21875,19.5 C1.21875,29.5964561 9.40354388,37.78125 19.5,37.78125 C29.5964561,37.78125 37.78125,29.5964561 37.78125,19.5 C37.78125,9.40354388 29.5964561,1.21875 19.5,1.21875 C9.40354388,1.21875 1.21875,9.40354388 1.21875,19.5 Z" id="back" stroke="#008FFF" stroke-width="2.4375"></path>
            <path d="M27.78425,16.3383768 C27.78425,16.3383768 27.95,17.6858579 27.95,19.0328187 L27.95,20.2960172 C27.95,21.6434983 27.78425,22.9904592 27.78425,22.9904592 C27.78425,22.9904592 27.6221258,24.137639 27.1253938,24.6428144 C26.4950258,25.3061497 25.7885164,25.3092713 25.4647859,25.348291 C23.1453219,25.5168562 19.6625,25.5220588 19.6625,25.5220588 C19.6625,25.5220588 15.353,25.4825188 14.027,25.3545341 C13.6582062,25.2853392 12.8299742,25.3061497 12.1990883,24.6428144 C11.7023562,24.137639 11.54075,22.9904592 11.54075,22.9904592 C11.54075,22.9904592 11.375,21.6434983 11.375,20.2960172 L11.375,19.0328187 C11.375,17.6858579 11.54075,16.3383768 11.54075,16.3383768 C11.54075,16.3383768 11.7023562,15.1911969 12.1990883,14.6860215 C12.8299742,14.0226862 13.5359656,14.0195647 13.8602141,13.9810652 C16.1796781,13.8125 19.6588742,13.8125 19.6588742,13.8125 L19.6661258,13.8125 C19.6661258,13.8125 23.1453219,13.8125 25.4647859,13.9810652 C25.7885164,14.0195647 26.4950258,14.0226862 27.1253938,14.6860215 C27.6221258,15.1911969 27.78425,16.3383768 27.78425,16.3383768 Z M17.9511313,21.8266309 L22.4289711,19.4958528 L17.9506133,17.1489465 L17.9511313,21.8266309 Z" id="Combined-Shape" fill="#008FFF"></path>
        </g>
    </g>
</svg>